<?xml version="1.0" encoding="UTF-8"?>
<!-- Generator: Adobe Illustrator 21.1.0, SVG Export Plug-In . SVG Version: 6.00 Build 0)  -->
<svg xmlns="http://www.w3.org/2000/svg" xmlns:xlink="http://www.w3.org/1999/xlink" xmlns:dc="http://purl.org/dc/elements/1.1/" xmlns:cc="http://creativecommons.org/ns#" xmlns:rdf="http://www.w3.org/1999/02/22-rdf-syntax-ns#" version="1.1" id="designs" x="0px" y="0px" width="32px" height="32px" viewBox="0 0 32 32" style="enable-background:new 0 0 32 32;" xml:space="preserve">
<title property="dc:title">to see</title><desc property="dc:description">An icon for "see" from the Sketchy series on to [icon]. Downloaded from http://www.toicon.com/icons/sketchy_see by 111.197.234.63 on 2020-02-07. Licensed CC-BY, see http://toicon.com/license/ for details.</desc>
<path class="sketchy_een" d="M16.413,26.118c-0.73-0.011-1.388-0.026-2.042-0.08c-0.888-0.076-1.846-0.232-2.929-0.474  c-0.918-0.203-1.811-0.507-2.655-0.904c-0.688-0.324-1.579-0.773-2.36-1.365l-0.244-0.183c-0.305-0.228-0.62-0.464-0.889-0.728  c-0.278-0.273-0.518-0.595-0.75-0.905l-0.079-0.107c-0.222-0.279-0.448-0.55-0.674-0.821c-0.506-0.607-1.029-1.234-1.468-1.909  c-0.114-0.176-0.107-0.376-0.081-0.512c-0.112-0.34-0.044-0.663,0.173-0.897c0.208-0.225,0.413-0.452,0.604-0.694l0.074-0.094  c0.254-0.322,0.508-0.645,0.78-0.956c0.28-0.319,0.584-0.618,0.888-0.913c0.317-0.311,0.644-0.611,0.981-0.901l0.334-0.292  c0.227-0.2,0.454-0.4,0.689-0.589c0.77-0.621,1.471-1.17,2.263-1.603c0.84-0.459,1.685-0.843,2.585-1.172  c0.799-0.292,1.627-0.527,2.407-0.743c0.884-0.244,1.832-0.295,2.642-0.313c0.219-0.005,0.44-0.01,0.66-0.01  c0.25,0,0.5,0.006,0.75,0.027c0.524,0.044,1.041,0.101,1.559,0.183c0.419,0.066,0.825,0.204,1.168,0.33  c0.328,0.122,0.657,0.249,0.982,0.382c0.263,0.107,0.523,0.216,0.783,0.331c0.409,0.179,0.763,0.378,1.081,0.606l0.35,0.254  c0.224,0.025,0.458,0.072,0.626,0.264c0.06,0.068,0.11,0.144,0.161,0.219l0.104,0.149l0.487,0.341  c0.528,0.36,1.074,0.733,1.566,1.156c0.376,0.322,0.663,0.597,0.903,0.863c0.144,0.161,0.282,0.325,0.42,0.491  c0.132,0.158,0.263,0.315,0.401,0.469c0.3,0.338,0.578,0.692,0.853,1.051c0.122,0.158,0.234,0.321,0.347,0.483  c0.088,0.126,0.174,0.252,0.265,0.375c0.15,0.187,0.27,0.336,0.368,0.498c0.088,0.144,0.146,0.237,0.206,0.322l-0.001,0  c0.125,0.175,0.176,0.316,0.176,0.487c0,0.148-0.055,0.3-0.162,0.452l-0.029,0.041l0.023,0.079c0.003,0.2-0.077,0.457-0.229,0.576  c-0.105,0.085-0.201,0.175-0.29,0.273l-0.205,0.306c-0.139,0.197-0.291,0.386-0.443,0.573c-0.218,0.265-0.469,0.491-0.73,0.716  c-0.637,0.55-1.266,1.033-1.922,1.477c-0.33,0.224-0.657,0.454-0.978,0.69c-0.305,0.228-0.627,0.417-0.903,0.573  c-0.334,0.189-0.682,0.339-1.032,0.488l-0.979,0.416v0c-0.477,0.202-0.881,0.364-1.3,0.493c-0.369,0.114-0.74,0.214-1.111,0.311  c-0.644,0.169-1.325,0.283-2.083,0.35c-0.519,0.047-1.082,0.07-1.722,0.07L16.413,26.118z M8.911,13.1l-0.054,0.037  c-0.149,0.103-0.298,0.206-0.443,0.316c-0.851,0.674-1.488,1.208-2.069,1.734c-0.714,0.645-1.295,1.253-1.777,1.858  c-0.239,0.321-0.492,0.626-0.745,0.931l-0.047,0.058l0.041,0.062c0.139,0.211,0.255,0.387,0.378,0.559  c0.422,0.537,0.861,1.054,1.304,1.568l0.272,0.321c0.136,0.164,0.273,0.327,0.417,0.482c0.231,0.246,0.488,0.459,0.709,0.634  c0.497,0.378,0.982,0.7,1.482,0.986c0.458,0.259,0.952,0.505,1.468,0.731c0.625,0.25,1.489,0.521,1.991,0.635  c0.503,0.113,0.657,0.113,0.657,0.113s-0.403-0.179-0.575-0.294c-0.172-0.115-0.392-0.262-0.51-0.345  c-0.194-0.139-0.377-0.295-0.558-0.452l-0.2-0.169c-0.12-0.1-0.241-0.201-0.348-0.314c-0.286-0.302-0.575-0.661-0.91-1.132  c-0.269-0.379-0.479-0.746-0.64-1.121c-0.106-0.243-0.214-0.503-0.276-0.775c-0.044-0.18-0.072-0.361-0.096-0.544l-0.017-0.125  c-0.101-0.756-0.181-1.505-0.129-2.227c0.047-0.625,0.131-1.446,0.362-2.245c0.098-0.34,0.237-0.697,0.412-1.061l0.166-0.345  L8.911,13.1z M25.956,14.814c0.057,0.568,0.053,1.109-0.013,1.655c-0.07,0.567-0.168,1.237-0.37,1.909  c-0.116,0.393-0.266,0.778-0.418,1.158c-0.175,0.438-0.373,0.935-0.625,1.378c-0.238,0.419-0.519,0.823-0.812,1.167  c-0.146,0.17-0.295,0.343-0.463,0.488c-0.152,0.131-0.313,0.254-0.472,0.376l-0.516,0.379l-0.58,0.394  c0.504-0.15,1.612-0.62,1.612-0.62c0.47-0.202,0.894-0.446,1.246-0.659c0.272-0.164,0.529-0.351,0.785-0.538  c0.127-0.093,0.254-0.186,0.383-0.276l0.291-0.202c0.244-0.167,0.487-0.334,0.724-0.512c0.304-0.238,0.594-0.487,0.883-0.74  c0.254-0.221,0.521-0.46,0.758-0.746l0.125-0.175c0.204-0.285,0.414-0.58,0.661-0.832l0.052-0.053l-0.035-0.065  c-0.058-0.11-0.097-0.182-0.144-0.249c-0.075-0.108-0.154-0.213-0.234-0.319c-0.078-0.103-0.155-0.207-0.229-0.313  c-0.254-0.368-0.516-0.727-0.784-1.085c-0.097-0.121-0.489-0.586-0.489-0.586l-0.203-0.253c-0.097-0.123-0.195-0.246-0.296-0.364  c-0.218-0.254-0.459-0.489-0.707-0.716l-0.196-0.179L25.956,14.814z M17.212,10.405c-0.656,0.008-1.243,0.044-1.794,0.11  c-0.721,0.12-1.405,0.315-2.038,0.508c-0.459,0.14-0.911,0.312-1.362,0.483l-0.025,0.009l-0.064,0.038l-0.474,0.541  c-0.24,0.317-0.467,0.63-0.672,0.964c-0.194,0.316-0.36,0.651-0.516,0.989c-0.206,0.529-0.353,1.065-0.454,1.642  c-0.042,0.396-0.071,0.785-0.075,1.176c-0.002,0.412,0.029,0.82,0.069,1.228c0.06,0.397,0.144,0.859,0.317,1.324  c0.216,0.439,0.436,0.809,0.677,1.138c0.212,0.27,0.427,0.534,0.665,0.776c0.219,0.224,0.471,0.421,0.72,0.614  c0.338,0.254,0.695,0.507,1.075,0.696c0.305,0.106,0.602,0.199,0.903,0.275c0.178,0.045,0.36,0.074,0.542,0.103  c0.13,0.021,0.26,0.041,0.387,0.068c0.19,0.04,0.379,0.087,0.569,0.134c0.318,0.078,0.635,0.156,0.958,0.205  c0.115,0.014,0.228,0.026,0.338,0.026c0.272-0.011,0.463-0.026,0.653-0.047l0.122-0.012c0.246-0.024,0.493-0.049,0.738-0.08  c0.277-0.043,0.547-0.099,0.812-0.179c0.206-0.062,0.408-0.143,0.609-0.223c0.657-0.296,1.173-0.678,1.653-1.047  c0.241-0.181,0.404-0.304,0.552-0.44c0.205-0.191,0.393-0.392,0.573-0.608c0.182-0.252,0.359-0.504,0.505-0.77  c0.139-0.246,0.253-0.51,0.366-0.771c0.432-1.056,0.675-1.889,0.802-2.706c0.061-0.555,0.069-0.978,0.029-1.378  c-0.097-0.657-0.215-1.149-0.385-1.598c-0.163-0.353-0.37-0.665-0.532-0.898l-0.082-0.095c-0.087-0.097-0.153-0.206-0.201-0.324  l-0.182-0.153c-0.146-0.11-0.294-0.219-0.45-0.316c-0.322-0.2-0.676-0.357-1.013-0.501c-0.406-0.168-0.813-0.326-1.227-0.467  c-0.434-0.149-0.846-0.255-1.257-0.322c-0.626-0.077-1.188-0.115-1.722-0.115L17.212,10.405z M16.873,19.398  c-0.577-0.002-1.081-0.084-1.5-0.243c-0.29-0.109-0.536-0.202-0.75-0.332c-0.182-0.11-0.359-0.247-0.521-0.382  c-0.169-0.141-0.298-0.319-0.435-0.506l-0.063-0.087c-0.11-0.138-0.206-0.259-0.27-0.388c-0.071-0.146-0.129-0.298-0.188-0.45  c-0.12-0.32-0.171-0.653-0.208-0.965c-0.062-0.542,0.04-1.149,0.306-1.802c0.151-0.375,0.319-0.77,0.548-1.121  c0.205-0.316,0.431-0.644,0.731-0.892c0.346-0.29,0.72-0.583,1.163-0.718c0.35-0.107,0.717-0.157,1.125-0.207  c0.002,0,0.004,0,0.006,0c0.211,0,0.4,0.113,0.503,0.217l0.187,0.091l0.154,0.05c0.065,0.019,0.13,0.035,0.195,0.051  c0.079,0.019,0.156,0.038,0.233,0.063c0.241,0.083,0.582,0.22,0.835,0.406c0.239,0.172,0.465,0.352,0.68,0.55l0.307,0.273  c0.102,0.096,0.184,0.207,0.268,0.321c0.222,0.295,0.347,0.61,0.442,0.882c0.159,0.455,0.232,0.922,0.215,1.388  c-0.011,0.282-0.044,0.545-0.099,0.781l-0.034,0.153c-0.035,0.162-0.072,0.327-0.135,0.479c-0.22,0.533-0.455,0.886-0.76,1.144  c-0.247,0.206-0.527,0.44-0.831,0.618c-0.321,0.19-0.638,0.334-0.94,0.428c-0.172,0.054-0.345,0.093-0.521,0.124  C17.302,19.36,17.087,19.398,16.873,19.398L16.873,19.398z M16.389,12.965c-0.784,0.067-1.208,0.641-1.481,1.322  c-0.123,0.308-0.258,0.673-0.33,1.073c-0.014,0.154-0.019,0.297-0.009,0.442c0.042,0.239,0.096,0.459,0.174,0.676  c0.092,0.183,0.201,0.336,0.316,0.489c0.075,0.091,0.152,0.171,0.237,0.246c0.144,0.103,0.282,0.186,0.433,0.259  c0.501,0.186,1.047,0.254,1.573,0.144c0.591-0.124,1.215-0.321,1.577-0.823c0.083-0.115,0.153-0.223,0.213-0.339  c0.081-0.223,0.138-0.454,0.179-0.717c0.022-0.191,0.031-0.38,0.017-0.567c-0.041-0.227-0.104-0.428-0.181-0.636  c-0.064-0.134-0.135-0.256-0.214-0.37c-0.147-0.171-0.309-0.322-0.475-0.461C17.88,13.255,17.108,12.909,16.389,12.965z   M1.822,14.038c-0.22,0-0.434-0.087-0.585-0.238c-0.316-0.316-0.316-0.85,0-1.166L1.47,12.4c0.379-0.381,0.77-0.776,1.188-1.115  c0.363-0.294,0.739-0.574,1.114-0.854l0.216-0.161c0.129-0.097,0.259-0.195,0.382-0.3c0.14-0.12,0.289-0.233,0.436-0.345l0.184-0.14  c0.216-0.168,0.436-0.332,0.661-0.488l0.135-0.092C6.293,8.566,6.784,8.28,7.287,8.029c0.595-0.296,1.215-0.577,1.845-0.836  c0.381-0.158,0.767-0.3,1.153-0.442l0.472-0.175c0.41-0.156,0.803-0.269,1.198-0.346c0.524-0.101,1.048-0.186,1.578-0.247  c0.604-0.07,1.254-0.105,1.986-0.105c0.266,0,0.533,0.004,0.798,0.012c0.46,0.013,0.993,0.034,1.513,0.122  c0.307,0.051,0.612,0.111,0.915,0.171l0.722,0.14c0.346,0.065,0.691,0.131,1.036,0.208c0.32,0.068,0.63,0.161,0.942,0.254  l0.309,0.091c0.962,0.279,1.804,0.549,2.578,0.824c0.848,0.302,1.697,0.662,2.595,1.102c0.189,0.092,0.372,0.196,0.556,0.3  c0.133,0.075,0.228,0.123,0.323,0.173c0.099,0.051,0.199,0.101,0.295,0.157c0.156,0.088,0.31,0.182,0.462,0.276  c0.204,0.125,0.407,0.249,0.617,0.362c0.385,0.209,0.724,0.446,1.007,0.705l0.235,0.224c0.109,0.105,0.217,0.21,0.331,0.309  c0.149,0.128,0.236,0.318,0.245,0.537c0.01,0.251-0.084,0.5-0.25,0.665c-0.156,0.158-0.376,0.249-0.602,0.249  c-0.217,0-0.405-0.078-0.61-0.254c-0.119-0.104-0.231-0.215-0.342-0.327c-0.119-0.118-0.238-0.236-0.365-0.346  c-0.211-0.151-0.424-0.276-0.637-0.403l-0.453-0.274c-0.259-0.16-0.515-0.319-0.785-0.461c-0.147-0.079-0.292-0.164-0.437-0.249  c-0.202-0.119-0.404-0.237-0.614-0.341l-0.485-0.239c-0.204-0.103-0.409-0.205-0.615-0.302l-0.301-0.117  c-0.518-0.201-1.039-0.402-1.568-0.574c-0.441-0.143-0.886-0.276-1.329-0.409l-0.719-0.217c-0.238-0.073-0.475-0.146-0.717-0.201  c-0.301-0.066-0.601-0.124-0.903-0.177l-0.564-0.101c-0.399-0.072-0.796-0.144-1.197-0.207c-0.398-0.043-0.797-0.057-1.195-0.057  c-0.226,0-0.451,0.004-0.675,0.011c-0.562,0.017-1.229,0.043-1.915,0.115c-0.704,0.104-1.527,0.246-2.316,0.515  c-0.77,0.263-1.473,0.526-2.149,0.805C8.286,9.371,7.424,9.83,6.62,10.352c-0.367,0.238-0.719,0.495-1.073,0.753  c0,0-1.002,0.728-1.214,0.886c-0.299,0.237-0.594,0.475-0.865,0.741c-0.359,0.353-0.714,0.71-1.067,1.069  C2.251,13.954,2.045,14.038,1.822,14.038L1.822,14.038z" style="fill: #111918;"/>
<metadata><work rdf:about=""><format>image/svg+xml</format><type rdf:resource="http://purl.org/dc/dcmitype/StillImage"/><license rdf:resource="http://creativecommons.org/licenses/by/4.0/"/><attributionname>Shannon E Thomas</attributionname><attributionurl>http://www.toicon.com/icons/sketchy_see</attributionurl></work></metadata></svg>
